# Blender 3.1.0
# www.blender.org
o Sphere
v 0.000000 -2.433899 -0.000000
v 0.000000 -1.216949 -2.107817
v 2.107817 -1.216949 -0.000000
v 0.000000 1.216950 -2.107817
v 0.000000 2.433899 0.000000
v 2.107820 1.216949 0.000000
v 0.000000 -1.216950 2.107819
v 0.000000 1.216949 2.107820
v -2.107817 -1.216949 -0.000000
v -2.107820 1.216949 0.000000
vn 1.0885 -1.8853 -1.0885
vn 1.7210 -0.0000 -1.7210
vn 1.0885 1.8853 -1.0885
vn 1.0885 -1.8853 1.0885
vn 1.7210 -0.0000 1.7210
vn 1.0885 1.8853 1.0885
vn -1.0885 -1.8853 1.0885
vn -1.7210 -0.0000 1.7210
vn -1.0885 1.8853 1.0885
vn -1.0885 -1.8853 -1.0885
vn -1.7210 -0.0000 -1.7210
vn -1.0885 1.8853 -1.0885
vt 0.625000 0.000000
vt 0.375000 0.000000
vt 0.125000 0.000000
vt 0.875000 0.000000
vt 0.750000 0.333333
vt 0.500000 0.333333
vt 0.750000 0.666667
vt 0.625000 1.000000
vt 0.375000 1.000000
vt 0.125000 1.000000
vt 0.875000 1.000000
vt 0.500000 0.666667
vt 0.250000 0.333333
vt 0.250000 0.666667
vt 0.000000 0.333333
vt 1.000000 0.333333
vt 0.000000 0.666667
vt 1.000000 0.666667
s 1
f 1/1/1 2/5/1 3/6/1
f 4/7/2 3/6/2 2/5/2
f 4/7/3 5/8/3 6/12/3
f 1/2/4 3/6/4 7/13/4
f 6/12/5 7/13/5 3/6/5
f 6/12/6 5/9/6 8/14/6
f 1/3/7 7/13/7 9/15/7
f 7/13/8 10/17/8 9/15/8
f 8/14/9 5/10/9 10/17/9
f 1/4/10 9/16/10 2/5/10
f 10/18/11 2/5/11 9/16/11
f 10/18/12 5/11/12 4/7/12
f 4/7/2 6/12/2 3/6/2
f 6/12/5 8/14/5 7/13/5
f 7/13/8 8/14/8 10/17/8
f 10/18/11 4/7/11 2/5/11
