# 3ds Max Wavefront OBJ Exporter v0.97b - (c)2007 guruware
# File Created: 31.03.2022 16:18:24

#
# object Pyramid001
#

v  0.0000 4.0000 -0.0000
v  -0.0040 0.0000 2.8284
v  2.8284 0.0000 0.0040
v  0.0040 0.0000 -2.8284
v  -2.8284 0.0000 -0.0040
v  0.0000 0.0000 -0.0000
# 6 vertices

vn 0.6316 0.4472 0.6333
vn 0.6333 0.4472 -0.6316
vn -0.6316 0.4472 -0.6333
vn -0.6333 0.4472 0.6316
vn 0.0000 -1.0000 -0.0000
# 5 vertex normals

vt 0.5000 1.0000 0.0000
vt 0.0000 0.0000 0.0000
vt 1.0000 0.0000 0.0000
vt 0.0000 1.0000 0.0000
vt 0.5000 0.5000 0.0000
vt 1.0000 1.0000 0.0000
# 6 texture coords

g Pyramid001
f 1/1/1 2/2/1 3/3/1 
f 1/1/2 3/2/2 4/3/2 
f 1/1/3 4/2/3 5/3/3 
f 1/1/4 5/2/4 2/3/4 
f 2/4/5 6/5/5 3/6/5 
f 3/6/5 6/5/5 4/3/5 
f 4/3/5 6/5/5 5/2/5 
f 5/2/5 6/5/5 2/4/5 
# 0 polygons - 8 triangles

